<?xml version="1.0" encoding="UTF-8"?>
<svg xmlns="http://www.w3.org/2000/svg" xmlns:xlink="http://www.w3.org/1999/xlink"
     width="800" height="800" viewBox="0 0 800 800">
<defs>
</defs>
<rect x="0" y="0" width="100%" height="100%" fill="hsl(209, 77%, 77%)" />
<path d="M198.9909952338786,171.58067640213477 A27.41031883174383,27.41031883174383,0,1,1,171.58067640213477,144.17035757039093 L171.58067640213477,171.58067640213477 Z" fill="black" transform="rotate(90,171.58067640213477,171.58067640213477)" />
<path d="M290.3587246730247,171.58067640213477 A27.41031883174383,27.41031883174383,0,1,1,262.9484058412809,144.17035757039093 L262.9484058412809,171.58067640213477 Z" fill="black" transform="rotate(90,262.9484058412809,171.58067640213477)" />
<path d="M381.7264541121708,171.58067640213477 A27.41031883174383,27.41031883174383,0,1,1,354.316135280427,144.17035757039093 L354.316135280427,171.58067640213477 Z" fill="black" transform="rotate(90,354.316135280427,171.58067640213477)" />
<path d="M473.0941835513169,171.58067640213477 A27.41031883174383,27.41031883174383,0,1,1,445.6838647195731,144.17035757039093 L445.6838647195731,171.58067640213477 Z" fill="black" transform="rotate(0,445.6838647195731,171.58067640213477)" />
<path d="M564.4619129904629,171.58067640213477 A27.41031883174383,27.41031883174383,0,1,1,537.0515941587191,144.17035757039093 L537.0515941587191,171.58067640213477 Z" fill="black" transform="rotate(0,537.0515941587191,171.58067640213477)" />
<path d="M655.8296424296091,171.58067640213477 A27.41031883174383,27.41031883174383,0,1,1,628.4193235978653,144.17035757039093 L628.4193235978653,171.58067640213477 Z" fill="black" transform="rotate(270,628.4193235978653,171.58067640213477)" />
<path d="M198.9909952338786,262.9484058412809 A27.41031883174383,27.41031883174383,0,1,1,171.58067640213477,235.53808700953704 L171.58067640213477,262.9484058412809 Z" fill="black" transform="rotate(270,171.58067640213477,262.9484058412809)" />
<path d="M290.3587246730247,262.9484058412809 A27.41031883174383,27.41031883174383,0,1,1,262.9484058412809,235.53808700953704 L262.9484058412809,262.9484058412809 Z" fill="black" transform="rotate(180,262.9484058412809,262.9484058412809)" />
<path d="M381.7264541121708,262.9484058412809 A27.41031883174383,27.41031883174383,0,1,1,354.316135280427,235.53808700953704 L354.316135280427,262.9484058412809 Z" fill="black" transform="rotate(180,354.316135280427,262.9484058412809)" />
<path d="M473.0941835513169,262.9484058412809 A27.41031883174383,27.41031883174383,0,1,1,445.6838647195731,235.53808700953704 L445.6838647195731,262.9484058412809 Z" fill="black" transform="rotate(270,445.6838647195731,262.9484058412809)" />
<path d="M564.4619129904629,262.9484058412809 A27.41031883174383,27.41031883174383,0,1,1,537.0515941587191,235.53808700953704 L537.0515941587191,262.9484058412809 Z" fill="black" transform="rotate(180,537.0515941587191,262.9484058412809)" />
<path d="M655.8296424296091,262.9484058412809 A27.41031883174383,27.41031883174383,0,1,1,628.4193235978653,235.53808700953704 L628.4193235978653,262.9484058412809 Z" fill="black" transform="rotate(180,628.4193235978653,262.9484058412809)" />
<path d="M198.9909952338786,354.316135280427 A27.41031883174383,27.41031883174383,0,1,1,171.58067640213477,326.90581644868314 L171.58067640213477,354.316135280427 Z" fill="black" transform="rotate(0,171.58067640213477,354.316135280427)" />
<path d="M290.3587246730247,354.316135280427 A27.41031883174383,27.41031883174383,0,1,1,262.9484058412809,326.90581644868314 L262.9484058412809,354.316135280427 Z" fill="black" transform="rotate(270,262.9484058412809,354.316135280427)" />
<path d="M381.7264541121708,354.316135280427 A27.41031883174383,27.41031883174383,0,1,1,354.316135280427,326.90581644868314 L354.316135280427,354.316135280427 Z" fill="black" transform="rotate(0,354.316135280427,354.316135280427)" />
<path d="M473.0941835513169,354.316135280427 A27.41031883174383,27.41031883174383,0,1,1,445.6838647195731,326.90581644868314 L445.6838647195731,354.316135280427 Z" fill="black" transform="rotate(0,445.6838647195731,354.316135280427)" />
<path d="M564.4619129904629,354.316135280427 A27.41031883174383,27.41031883174383,0,1,1,537.0515941587191,326.90581644868314 L537.0515941587191,354.316135280427 Z" fill="black" transform="rotate(90,537.0515941587191,354.316135280427)" />
<path d="M655.8296424296091,354.316135280427 A27.41031883174383,27.41031883174383,0,1,1,628.4193235978653,326.90581644868314 L628.4193235978653,354.316135280427 Z" fill="black" transform="rotate(90,628.4193235978653,354.316135280427)" />
<path d="M198.9909952338786,445.6838647195731 A27.41031883174383,27.41031883174383,0,1,1,171.58067640213477,418.27354588782924 L171.58067640213477,445.6838647195731 Z" fill="black" transform="rotate(90,171.58067640213477,445.6838647195731)" />
<path d="M290.3587246730247,445.6838647195731 A27.41031883174383,27.41031883174383,0,1,1,262.9484058412809,418.27354588782924 L262.9484058412809,445.6838647195731 Z" fill="black" transform="rotate(270,262.9484058412809,445.6838647195731)" />
<path d="M381.7264541121708,445.6838647195731 A27.41031883174383,27.41031883174383,0,1,1,354.316135280427,418.27354588782924 L354.316135280427,445.6838647195731 Z" fill="black" transform="rotate(270,354.316135280427,445.6838647195731)" />
<path d="M473.0941835513169,445.6838647195731 A27.41031883174383,27.41031883174383,0,1,1,445.6838647195731,418.27354588782924 L445.6838647195731,445.6838647195731 Z" fill="black" transform="rotate(90,445.6838647195731,445.6838647195731)" />
<path d="M564.4619129904629,445.6838647195731 A27.41031883174383,27.41031883174383,0,1,1,537.0515941587191,418.27354588782924 L537.0515941587191,445.6838647195731 Z" fill="black" transform="rotate(0,537.0515941587191,445.6838647195731)" />
<path d="M655.8296424296091,445.6838647195731 A27.41031883174383,27.41031883174383,0,1,1,628.4193235978653,418.27354588782924 L628.4193235978653,445.6838647195731 Z" fill="black" transform="rotate(180,628.4193235978653,445.6838647195731)" />
<path d="M198.9909952338786,537.0515941587191 A27.41031883174383,27.41031883174383,0,1,1,171.58067640213477,509.6412753269753 L171.58067640213477,537.0515941587191 Z" fill="black" transform="rotate(90,171.58067640213477,537.0515941587191)" />
<path d="M290.3587246730247,537.0515941587191 A27.41031883174383,27.41031883174383,0,1,1,262.9484058412809,509.6412753269753 L262.9484058412809,537.0515941587191 Z" fill="black" transform="rotate(90,262.9484058412809,537.0515941587191)" />
<path d="M381.7264541121708,537.0515941587191 A27.41031883174383,27.41031883174383,0,1,1,354.316135280427,509.6412753269753 L354.316135280427,537.0515941587191 Z" fill="black" transform="rotate(180,354.316135280427,537.0515941587191)" />
<path d="M473.0941835513169,537.0515941587191 A27.41031883174383,27.41031883174383,0,1,1,445.6838647195731,509.6412753269753 L445.6838647195731,537.0515941587191 Z" fill="black" transform="rotate(180,445.6838647195731,537.0515941587191)" />
<path d="M564.4619129904629,537.0515941587191 A27.41031883174383,27.41031883174383,0,1,1,537.0515941587191,509.6412753269753 L537.0515941587191,537.0515941587191 Z" fill="black" transform="rotate(270,537.0515941587191,537.0515941587191)" />
<path d="M655.8296424296091,537.0515941587191 A27.41031883174383,27.41031883174383,0,1,1,628.4193235978653,509.6412753269753 L628.4193235978653,537.0515941587191 Z" fill="black" transform="rotate(0,628.4193235978653,537.0515941587191)" />
<path d="M198.9909952338786,628.4193235978653 A27.41031883174383,27.41031883174383,0,1,1,171.58067640213477,601.0090047661215 L171.58067640213477,628.4193235978653 Z" fill="black" transform="rotate(180,171.58067640213477,628.4193235978653)" />
<path d="M290.3587246730247,628.4193235978653 A27.41031883174383,27.41031883174383,0,1,1,262.9484058412809,601.0090047661215 L262.9484058412809,628.4193235978653 Z" fill="black" transform="rotate(270,262.9484058412809,628.4193235978653)" />
<path d="M381.7264541121708,628.4193235978653 A27.41031883174383,27.41031883174383,0,1,1,354.316135280427,601.0090047661215 L354.316135280427,628.4193235978653 Z" fill="black" transform="rotate(270,354.316135280427,628.4193235978653)" />
<path d="M473.0941835513169,628.4193235978653 A27.41031883174383,27.41031883174383,0,1,1,445.6838647195731,601.0090047661215 L445.6838647195731,628.4193235978653 Z" fill="black" transform="rotate(270,445.6838647195731,628.4193235978653)" />
<path d="M564.4619129904629,628.4193235978653 A27.41031883174383,27.41031883174383,0,1,1,537.0515941587191,601.0090047661215 L537.0515941587191,628.4193235978653 Z" fill="black" transform="rotate(180,537.0515941587191,628.4193235978653)" />
<path d="M655.8296424296091,628.4193235978653 A27.41031883174383,27.41031883174383,0,1,1,628.4193235978653,601.0090047661215 L628.4193235978653,628.4193235978653 Z" fill="black" transform="rotate(180,628.4193235978653,628.4193235978653)" />
</svg>